HIERARCHY
ROOT Yihan_28_06:Solving:Hips
{
	OFFSET 0.000000 0.000000 0.000000
	CHANNELS 6 Xposition Yposition Zposition Xrotation Yrotation Zrotation
	JOINT Yihan_28_06:Solving:Spine
	{
		OFFSET 0.000000 -10.933681 1.754050
		CHANNELS 6 Xposition Yposition Zposition Xrotation Yrotation Zrotation
		JOINT Yihan_28_06:Solving:Spine1
		{
			OFFSET 0.000000 -9.267541 1.634120
			CHANNELS 6 Xposition Yposition Zposition Xrotation Yrotation Zrotation
			JOINT Yihan_28_06:Solving:Spine2
			{
				OFFSET 0.000000 -9.374699 0.820182
				CHANNELS 6 Xposition Yposition Zposition Xrotation Yrotation Zrotation
				JOINT Yihan_28_06:Solving:Spine3
				{
					OFFSET 0.000000 -9.410507 0.000000
					CHANNELS 6 Xposition Yposition Zposition Xrotation Yrotation Zrotation
					JOINT Yihan_28_06:Solving:Neck
					{
						OFFSET 0.000000 -12.099224 -1.209920
						CHANNELS 6 Xposition Yposition Zposition Xrotation Yrotation Zrotation
						JOINT Yihan_28_06:Solving:Neck1
						{
							OFFSET 0.000000 -7.349789 -0.643021
							CHANNELS 6 Xposition Yposition Zposition Xrotation Yrotation Zrotation
							JOINT Yihan_28_06:Solving:Head
							{
								OFFSET 0.000000 -7.265778 -1.281152
								CHANNELS 6 Xposition Yposition Zposition Xrotation Yrotation Zrotation
								JOINT Yihan_28_06:Solving:HeadEnd
								{
									OFFSET 0.000000 -9.728081 0.000002
									CHANNELS 6 Xposition Yposition Zposition Xrotation Yrotation Zrotation
									End Site
									{
										OFFSET 0.000000 -9.728081 0.000002
									}
								}
							}
						}
					}
					JOINT Yihan_28_06:Solving:RightShoulder
					{
						OFFSET 0.000000 -8.642303 -5.270916
						CHANNELS 6 Xposition Yposition Zposition Xrotation Yrotation Zrotation
						JOINT Yihan_28_06:Solving:RightArm
						{
							OFFSET -17.619331 -0.000004 0.000000
							CHANNELS 6 Xposition Yposition Zposition Xrotation Yrotation Zrotation
							JOINT Yihan_28_06:Solving:RightForeArm
							{
								OFFSET -29.732449 -0.000008 0.000000
								CHANNELS 6 Xposition Yposition Zposition Xrotation Yrotation Zrotation
								JOINT Yihan_28_06:Solving:RightHand
								{
									OFFSET -23.617275 -0.000008 0.000000
									CHANNELS 6 Xposition Yposition Zposition Xrotation Yrotation Zrotation
									JOINT Yihan_28_06:Solving:RightHandThumb1
									{
										OFFSET -3.546165 2.953053 -2.636890
										CHANNELS 6 Xposition Yposition Zposition Xrotation Yrotation Zrotation
										End Site
										{
											OFFSET -5.198463 0.000000 -5.246530
										}
									}
									JOINT Yihan_28_06:Solving:RightHandMiddle1
									{
										OFFSET -9.456436 -0.000004 0.060618
										CHANNELS 6 Xposition Yposition Zposition Xrotation Yrotation Zrotation
										End Site
										{
											OFFSET -7.385803 -0.000004 0.000000
										}
									}
								}
							}
						}
					}
					JOINT Yihan_28_06:Solving:LeftShoulder
					{
						OFFSET 0.000000 -8.642303 -5.270916
						CHANNELS 6 Xposition Yposition Zposition Xrotation Yrotation Zrotation
						JOINT Yihan_28_06:Solving:LeftArm
						{
							OFFSET 17.619331 -0.000004 0.000000
							CHANNELS 6 Xposition Yposition Zposition Xrotation Yrotation Zrotation
							JOINT Yihan_28_06:Solving:LeftForeArm
							{
								OFFSET 29.732449 -0.000008 0.000000
								CHANNELS 6 Xposition Yposition Zposition Xrotation Yrotation Zrotation
								JOINT Yihan_28_06:Solving:LeftHand
								{
									OFFSET 23.617275 -0.000008 0.000000
									CHANNELS 6 Xposition Yposition Zposition Xrotation Yrotation Zrotation
									JOINT Yihan_28_06:Solving:LeftHandThumb1
									{
										OFFSET 3.546165 2.953053 -2.636890
										CHANNELS 6 Xposition Yposition Zposition Xrotation Yrotation Zrotation
										End Site
										{
											OFFSET 5.198463 0.000000 -5.246530
										}
									}
									JOINT Yihan_28_06:Solving:LeftHandMiddle1
									{
										OFFSET 9.456436 -0.000004 0.060618
										CHANNELS 6 Xposition Yposition Zposition Xrotation Yrotation Zrotation
										End Site
										{
											OFFSET 7.385803 -0.000004 0.000000
										}
									}
								}
							}
						}
					}
				}
			}
		}
	}
	JOINT Yihan_28_06:Solving:RightUpLeg
	{
		OFFSET -12.221851 0.000000 0.000000
		CHANNELS 6 Xposition Yposition Zposition Xrotation Yrotation Zrotation
		JOINT Yihan_28_06:Solving:RightLeg
		{
			OFFSET 0.000000 44.387260 -0.000006
			CHANNELS 6 Xposition Yposition Zposition Xrotation Yrotation Zrotation
			JOINT Yihan_28_06:Solving:RightFoot
			{
				OFFSET 0.000000 37.410240 -0.000006
				CHANNELS 6 Xposition Yposition Zposition Xrotation Yrotation Zrotation
				JOINT Yihan_28_06:Solving:RightForeFoot
				{
					OFFSET 0.000000 4.107742 -0.000000
					CHANNELS 6 Xposition Yposition Zposition Xrotation Yrotation Zrotation
					JOINT Yihan_28_06:Solving:RightToeBase
					{
						OFFSET 0.000000 0.000000 -16.087208
						CHANNELS 6 Xposition Yposition Zposition Xrotation Yrotation Zrotation
						JOINT Yihan_28_06:Solving:RightToeBaseEnd
						{
							OFFSET 0.000000 0.000000 -3.506769
							CHANNELS 6 Xposition Yposition Zposition Xrotation Yrotation Zrotation
							End Site
							{
								OFFSET 0.000000 -3.506767 0.000000
							}
						}
					}
				}
			}
		}
	}
	JOINT Yihan_28_06:Solving:LeftUpLeg
	{
		OFFSET 12.221851 0.000000 0.000000
		CHANNELS 6 Xposition Yposition Zposition Xrotation Yrotation Zrotation
		JOINT Yihan_28_06:Solving:LeftLeg
		{
			OFFSET 0.000000 44.387260 -0.000006
			CHANNELS 6 Xposition Yposition Zposition Xrotation Yrotation Zrotation
			JOINT Yihan_28_06:Solving:LeftFoot
			{
				OFFSET 0.000000 37.410240 -0.000006
				CHANNELS 6 Xposition Yposition Zposition Xrotation Yrotation Zrotation
				JOINT Yihan_28_06:Solving:LeftForeFoot
				{
					OFFSET 0.000000 4.107742 -0.000000
					CHANNELS 6 Xposition Yposition Zposition Xrotation Yrotation Zrotation
					JOINT Yihan_28_06:Solving:LeftToeBase
					{
						OFFSET 0.000000 0.000000 -16.087208
						CHANNELS 6 Xposition Yposition Zposition Xrotation Yrotation Zrotation
						JOINT Yihan_28_06:Solving:LeftToeBaseEnd
						{
							OFFSET 0.000000 0.000000 -3.932585
							CHANNELS 6 Xposition Yposition Zposition Xrotation Yrotation Zrotation
							End Site
							{
								OFFSET 0.000000 -3.932587 0.000000
							}
						}
					}
				}
			}
		}
	}
}
MOTION
Frames: 4
Frame Time: 0.041667
-0.494892 -51.757172 -89.367645 87.887896 -1.268074 0.787625 -0.000000 -10.933684 1.754044 14.000761 -0.604068 0.153819 -0.000000 -9.267536 1.634117 -0.465839 -0.101574 0.130633 0.000000 -9.374682 0.820188 -1.523826 -3.495129 0.039986 -0.000001 -9.410517 0.000005 1.067496 -0.359065 1.575968 -0.000001 -12.099234 -1.209922 -8.044108 -7.147249 2.371178 0.000003 -7.349788 -0.643030 2.846528 -3.516380 -0.782496 0.000000 -7.265766 -1.281127 9.718322 -0.202728 -0.930878 0.000001 -9.728065 0.000008 0.000003 0.000003 -0.000001 0.000000 -8.642273 -5.270928 -0.000004 12.577824 5.158558 -17.619329 -0.000003 -0.000002 1.387541 -45.754450 -67.667524 -29.732447 -0.000010 0.000009 6.737718 -14.992229 1.750450 -23.617302 -0.000016 0.000002 0.452236 1.939418 -13.127993 -3.546150 2.953050 -2.636887 -0.000000 -0.000000 -0.000000 -9.456429 -0.000001 0.060612 0.000005 0.000003 0.000000 -0.000001 -8.642269 -5.270932 -0.000007 -13.884223 -6.947400 17.619339 -0.000002 0.000006 3.982989 46.555679 65.959649 29.732468 -0.000023 -0.000010 13.751787 26.998939 -6.339530 23.617294 -0.000003 0.000001 -1.376963 -11.486541 -6.882531 3.546181 2.953049 -2.636877 -0.000004 -0.000003 -0.000000 9.456480 -0.000003 0.060621 -0.000001 -0.000000 0.000007 -12.221854 -0.000014 -0.000009 8.309957 3.553203 -5.318502 0.000002 44.387241 -0.000002 1.467994 0.000000 0.000001 -0.000002 37.410229 -0.000000 -6.862469 15.308431 4.095556 -0.000000 4.107742 0.000009 -0.000000 -0.000002 0.000000 -0.000001 0.000006 -16.087215 8.710578 -0.000000 0.000000 0.000002 0.000000 -3.506769 -0.000000 0.000000 0.000000 12.221852 -0.000009 -0.000005 -16.694775 -12.441467 -8.805944 0.000001 44.387260 -0.000005 27.247938 0.000001 0.000002 -0.000003 37.410248 -0.000005 -4.904861 3.132601 11.593143 0.000007 4.107742 -0.000005 -0.000001 0.000000 0.000001 -0.000004 0.000007 -16.087215 -14.517425 0.000003 0.000001 -0.000001 0.000000 -3.932585 -0.000000 0.000002 0.000001 
-0.355558 -51.569267 -89.356270 88.057244 -1.354696 0.784189 0.000000 -10.933668 1.754052 14.046489 -0.612287 0.143235 0.000000 -9.267527 1.634126 -0.466650 -0.103042 0.136485 0.000000 -9.374698 0.820182 -1.548813 -3.450422 0.057050 0.000000 -9.410520 0.000002 1.012317 -0.356603 1.616478 -0.000001 -12.099228 -1.209902 -8.069693 -7.128055 2.376124 0.000000 -7.349775 -0.643015 2.828248 -3.600319 -0.794668 0.000000 -7.265771 -1.281152 9.728535 -0.206510 -0.943161 -0.000001 -9.728073 0.000017 -0.000002 -0.000001 -0.000001 -0.000000 -8.642296 -5.270897 -0.000009 12.629716 5.233981 -17.619329 -0.000000 -0.000003 0.825983 -45.190000 -67.926286 -29.732456 -0.000009 -0.000010 6.660058 -14.769283 1.704973 -23.617273 -0.000006 0.000003 0.430513 1.877443 -12.917035 -3.546157 2.953039 -2.636887 -0.000001 -0.000000 0.000001 -9.456434 -0.000009 0.060627 0.000003 0.000001 0.000002 -0.000001 -8.642307 -5.270895 -0.000009 -13.817439 -6.935999 17.619337 -0.000012 -0.000021 3.137463 45.364542 66.715218 29.732458 -0.000015 -0.000016 13.803025 27.110467 -6.387990 23.617273 -0.000016 -0.000003 -1.426252 -11.645005 -7.031821 3.546152 2.953040 -2.636892 0.000005 0.000002 0.000003 9.456433 -0.000010 0.060611 0.000005 -0.000003 -0.000003 -12.221851 0.000001 -0.000001 8.278376 3.700704 -5.246182 -0.000000 44.387272 -0.000004 1.475367 0.000000 0.000000 -0.000003 37.410240 -0.000014 -6.962875 15.301500 4.099113 0.000001 4.107742 0.000001 -0.000000 -0.000001 0.000000 0.000003 0.000011 -16.087206 8.777730 -0.000001 0.000000 -0.000002 0.000007 -3.506763 -0.000002 -0.000002 -0.000000 12.221848 0.000018 -0.000006 -16.427172 -12.388431 -8.635570 -0.000004 44.387257 -0.000012 24.828805 -0.000000 0.000002 0.000000 37.410240 -0.000012 -4.423622 2.574550 11.352585 -0.000001 4.107742 -0.000005 0.000000 -0.000001 0.000001 0.000004 0.000007 -16.087206 -14.242325 0.000001 0.000001 -0.000001 -0.000000 -3.932580 -0.000001 0.000000 0.000000 
-0.214437 -51.373005 -89.341331 88.228689 -1.453550 0.788898 -0.000000 -10.933695 1.754038 14.081384 -0.610707 0.133695 -0.000000 -9.267535 1.634121 -0.464920 -0.103598 0.141352 -0.000000 -9.374681 0.820157 -1.562956 -3.409701 0.074523 0.000000 -9.410521 0.000009 0.967142 -0.349044 1.655171 0.000001 -12.099204 -1.209920 -8.108837 -7.124540 2.375615 -0.000001 -7.349816 -0.643023 2.802904 -3.663953 -0.812530 -0.000002 -7.265782 -1.281154 9.728319 -0.211382 -0.954294 -0.000001 -9.728096 0.000003 -0.000002 -0.000000 -0.000001 0.000002 -8.642265 -5.270930 -0.000004 12.665224 5.280474 -17.619328 0.000028 -0.000015 0.351901 -44.636604 -68.124505 -29.732416 -0.000014 0.000011 6.312523 -14.648874 1.602428 -23.617279 -0.000007 0.000004 0.419107 1.849736 -12.768199 -3.546156 2.953048 -2.636887 0.000004 -0.000002 0.000003 -9.456437 0.000000 0.060618 0.000003 -0.000004 -0.000001 -0.000001 -8.642262 -5.270930 -0.000008 -13.758345 -6.916382 17.619333 0.000009 -0.000022 2.387794 44.235116 67.402848 29.732473 -0.000016 -0.000004 13.644546 27.316186 -6.356272 23.617289 -0.000011 0.000012 -1.505702 -11.761662 -7.347711 3.546173 2.953048 -2.636880 -0.000001 0.000002 -0.000000 9.456465 -0.000000 0.060624 0.000003 0.000001 -0.000002 -12.221850 0.000000 0.000000 8.237836 3.824914 -5.184263 -0.000001 44.387276 0.000003 1.509885 0.000000 0.000000 0.000001 37.410248 -0.000006 -7.082165 15.344105 4.109100 -0.000001 4.107742 0.000001 -0.000000 -0.000003 0.000000 0.000004 0.000003 -16.087215 8.762579 -0.000004 0.000000 -0.000006 0.000000 -3.506777 0.000001 -0.000003 0.000001 12.221852 -0.000013 -0.000008 -16.114896 -12.199620 -8.447739 -0.000002 44.387268 -0.000011 22.348164 0.000001 0.000001 -0.000000 37.410244 -0.000003 -3.808823 2.011224 11.134854 0.000005 4.107742 0.000006 -0.000000 0.000002 -0.000001 -0.000004 0.000008 -16.087210 -13.980911 0.000000 -0.000002 -0.000003 0.000008 -3.932586 0.000000 0.000002 0.000000 
-0.069286 -51.170555 -89.321495 88.414074 -1.566355 0.785349 0.000000 -10.933688 1.754030 14.094709 -0.596863 0.146435 -0.000000 -9.267577 1.634125 -0.452696 -0.103777 0.141387 0.000000 -9.374690 0.820176 -1.575158 -3.377864 0.087187 -0.000000 -9.410518 -0.000018 0.920510 -0.349618 1.678247 0.000001 -12.099222 -1.209895 -8.161421 -7.092997 2.388147 0.000002 -7.349775 -0.643013 2.788532 -3.730205 -0.828593 0.000001 -7.265772 -1.281164 9.722789 -0.212987 -0.953896 -0.000000 -9.728058 0.000008 -0.000001 -0.000001 -0.000001 0.000002 -8.642292 -5.270897 -0.000006 12.721053 5.322182 -17.619341 -0.000000 0.000018 -0.097490 -44.063879 -68.314111 -29.732452 0.000002 0.000002 5.916981 -14.578190 1.494245 -23.617289 -0.000011 0.000006 0.423460 1.873682 -12.736844 -3.546199 2.953044 -2.636883 -0.000007 -0.000003 -0.000004 -9.456472 -0.000005 0.060620 -0.000001 0.000002 0.000003 0.000001 -8.642288 -5.270897 -0.000008 -13.670012 -6.890925 17.619335 -0.000008 -0.000014 1.687646 43.118964 68.077793 29.732460 -0.000009 -0.000002 13.371322 27.589651 -6.282254 23.617254 -0.000019 0.000003 -1.575544 -11.864033 -7.620053 3.546134 2.953041 -2.636887 0.000001 0.000002 -0.000001 9.456450 -0.000002 0.060619 0.000007 0.000004 -0.000002 -12.221852 0.000010 -0.000011 8.195985 3.964255 -5.113355 -0.000002 44.387276 0.000000 1.524821 -0.000000 0.000000 -0.000000 37.410236 -0.000010 -7.196423 15.387842 4.128922 0.000005 4.107742 -0.000002 0.000000 0.000003 -0.000000 -0.000002 0.000010 -16.087214 8.756309 -0.000000 0.000000 -0.000001 0.000008 -3.506753 0.000001 -0.000005 0.000000 12.221848 -0.000004 -0.000012 -15.806292 -11.927235 -8.236779 0.000000 44.387257 0.000007 19.891358 0.000000 0.000002 0.000003 37.410248 -0.000008 -3.067838 1.501628 10.916828 0.000004 4.107750 -0.000001 -0.000000 0.000001 0.000000 -0.000004 0.000004 -16.087210 -13.822013 0.000001 -0.000002 0.000001 0.000007 -3.932585 -0.000000 0.000004 -0.000001 
